<svg xmlns="http://www.w3.org/2000/svg" width="1200" height="720" viewBox="0 0 1200 720"><rect x="0" y="0" width="1200" height="720" rx="24" fill="#181818"/><rect x="55" y="45" width="1090" height="630" rx="18" fill="#202020" stroke="#444444"/><text x="95" y="105" fill="#f2f2f2" font-family="Arial, Tahoma, sans-serif" font-size="34" font-weight="700" text-anchor="start">Safe Attachment Trash</text><text x="95" y="142" fill="#a5a5a5" font-family="Arial, Tahoma, sans-serif" font-size="18" font-weight="400" text-anchor="start">Review first. Scanning never moves or deletes files.</text><rect x="95" y="175" width="190" height="38" rx="8" fill="#7c3aed"/><text x="190.0" y="200" fill="white" font-family="Arial, Tahoma, sans-serif" font-size="15" font-weight="400" text-anchor="middle">Unused (3)</text><rect x="295" y="175" width="160" height="38" rx="8" fill="#343434"/><text x="375.0" y="200" fill="#dddddd" font-family="Arial, Tahoma, sans-serif" font-size="15" font-weight="400" text-anchor="middle">Trash (1)</text><rect x="465" y="175" width="190" height="38" rx="8" fill="#343434"/><text x="560.0" y="200" fill="#dddddd" font-family="Arial, Tahoma, sans-serif" font-size="15" font-weight="400" text-anchor="middle">Protected (2)</text><rect x="820" y="175" width="255" height="38" rx="8" fill="#343434"/><text x="947.5" y="200" fill="#dddddd" font-family="Arial, Tahoma, sans-serif" font-size="15" font-weight="400" text-anchor="middle">Scan and refresh</text><rect x="95" y="250" width="980" height="355" rx="14" fill="#262626" stroke="#444444"/><text x="125" y="295" fill="#a5a5a5" font-family="Arial, Tahoma, sans-serif" font-size="17" font-weight="400" text-anchor="start">☐ Select all</text><line x1="95" y1="320" x2="1075" y2="320" stroke="#444444"/><text x="125" y="366" fill="#dddddd" font-family="Arial, Tahoma, sans-serif" font-size="24" font-weight="400" text-anchor="start">☐  diagram.png</text><text x="165" y="396" fill="#999999" font-family="Arial, Tahoma, sans-serif" font-size="16" font-weight="400" text-anchor="start">Attachments/Images/diagram.png</text><rect x="690" y="345" width="90" height="38" rx="8" fill="#343434"/><text x="735.0" y="370" fill="#dddddd" font-family="Arial, Tahoma, sans-serif" font-size="15" font-weight="400" text-anchor="middle">Open</text><rect x="790" y="345" width="145" height="38" rx="8" fill="#7c3aed"/><text x="862.5" y="370" fill="white" font-family="Arial, Tahoma, sans-serif" font-size="15" font-weight="400" text-anchor="middle">Move to trash</text><rect x="945" y="345" width="105" height="38" rx="8" fill="#343434"/><text x="997.5" y="370" fill="#dddddd" font-family="Arial, Tahoma, sans-serif" font-size="15" font-weight="400" text-anchor="middle">Protect</text><line x1="95" y1="425" x2="1075" y2="425" stroke="#444444"/><text x="125" y="471" fill="#dddddd" font-family="Arial, Tahoma, sans-serif" font-size="24" font-weight="400" text-anchor="start">☐  reference.pdf</text><text x="165" y="501" fill="#999999" font-family="Arial, Tahoma, sans-serif" font-size="16" font-weight="400" text-anchor="start">Attachments/PDF/reference.pdf</text><rect x="690" y="450" width="90" height="38" rx="8" fill="#343434"/><text x="735.0" y="475" fill="#dddddd" font-family="Arial, Tahoma, sans-serif" font-size="15" font-weight="400" text-anchor="middle">Open</text><rect x="790" y="450" width="145" height="38" rx="8" fill="#7c3aed"/><text x="862.5" y="475" fill="white" font-family="Arial, Tahoma, sans-serif" font-size="15" font-weight="400" text-anchor="middle">Move to trash</text><rect x="945" y="450" width="105" height="38" rx="8" fill="#343434"/><text x="997.5" y="475" fill="#dddddd" font-family="Arial, Tahoma, sans-serif" font-size="15" font-weight="400" text-anchor="middle">Protect</text><line x1="95" y1="530" x2="1075" y2="530" stroke="#444444"/><text x="125" y="575" fill="#a5a5a5" font-family="Arial, Tahoma, sans-serif" font-size="17" font-weight="400" text-anchor="start">Nothing changes until you choose an action.</text></svg>