<svg xmlns="http://www.w3.org/2000/svg" width="1200" height="720" viewBox="0 0 1200 720"><rect x="0" y="0" width="1200" height="720" rx="24" fill="#181818"/><rect x="55" y="55" width="1090" height="610" rx="18" fill="#202020" stroke="#444444"/><text x="95" y="110" fill="#f2f2f2" font-family="Arial, Tahoma, sans-serif" font-size="31" font-weight="700" text-anchor="start">Trash review</text><text x="95" y="145" fill="#a5a5a5" font-family="Arial, Tahoma, sans-serif" font-size="18" font-weight="400" text-anchor="start">Open, restore, or permanently delete selected files.</text><rect x="95" y="190" width="1010" height="330" rx="14" fill="#272727" stroke="#444444"/><text x="125" y="255" fill="#eeeeee" font-family="Arial, Tahoma, sans-serif" font-size="22" font-weight="400" text-anchor="start">☐  diagram.png</text><text x="165" y="283" fill="#999999" font-family="Arial, Tahoma, sans-serif" font-size="15" font-weight="400" text-anchor="start">Original: Projects/Architecture/diagram.png</text><rect x="690" y="230" width="90" height="38" rx="8" fill="#343434"/><text x="735.0" y="255" fill="#dddddd" font-family="Arial, Tahoma, sans-serif" font-size="15" font-weight="400" text-anchor="middle">Open</text><rect x="790" y="230" width="110" height="38" rx="8" fill="#7c3aed"/><text x="845.0" y="255" fill="white" font-family="Arial, Tahoma, sans-serif" font-size="15" font-weight="400" text-anchor="middle">Restore</text><rect x="910" y="230" width="140" height="38" rx="8" fill="#343434"/><text x="980.0" y="255" fill="#dddddd" font-family="Arial, Tahoma, sans-serif" font-size="15" font-weight="400" text-anchor="middle">Delete forever</text><line x1="95" y1="310" x2="1105" y2="310" stroke="#444444"/><text x="125" y="375" fill="#eeeeee" font-family="Arial, Tahoma, sans-serif" font-size="22" font-weight="400" text-anchor="start">☐  reference.pdf</text><text x="165" y="403" fill="#999999" font-family="Arial, Tahoma, sans-serif" font-size="15" font-weight="400" text-anchor="start">Original: Research/reference.pdf</text><rect x="690" y="350" width="90" height="38" rx="8" fill="#343434"/><text x="735.0" y="375" fill="#dddddd" font-family="Arial, Tahoma, sans-serif" font-size="15" font-weight="400" text-anchor="middle">Open</text><rect x="790" y="350" width="110" height="38" rx="8" fill="#7c3aed"/><text x="845.0" y="375" fill="white" font-family="Arial, Tahoma, sans-serif" font-size="15" font-weight="400" text-anchor="middle">Restore</text><rect x="910" y="350" width="140" height="38" rx="8" fill="#343434"/><text x="980.0" y="375" fill="#dddddd" font-family="Arial, Tahoma, sans-serif" font-size="15" font-weight="400" text-anchor="middle">Delete forever</text><line x1="95" y1="430" x2="1105" y2="430" stroke="#444444"/><rect x="95" y="560" width="190" height="38" rx="8" fill="#7c3aed"/><text x="190.0" y="585" fill="white" font-family="Arial, Tahoma, sans-serif" font-size="15" font-weight="400" text-anchor="middle">Restore selected</text><rect x="300" y="560" width="210" height="38" rx="8" fill="#343434"/><text x="405.0" y="585" fill="#dddddd" font-family="Arial, Tahoma, sans-serif" font-size="15" font-weight="400" text-anchor="middle">Delete selected</text></svg>