<svg xmlns="http://www.w3.org/2000/svg" width="1200" height="720" viewBox="0 0 1200 720"><rect x="0" y="0" width="1200" height="720" rx="24" fill="#181818"/><rect x="55" y="55" width="1090" height="610" rx="18" fill="#202020" stroke="#444444"/><text x="95" y="110" fill="#f2f2f2" font-family="Arial, Tahoma, sans-serif" font-size="31" font-weight="700" text-anchor="start">Review before moving</text><text x="95" y="145" fill="#a5a5a5" font-family="Arial, Tahoma, sans-serif" font-size="18" font-weight="400" text-anchor="start">Open a file, move it to trash, or keep it out of future suggestions.</text><rect x="95" y="185" width="1010" height="380" rx="14" fill="#272727" stroke="#444444"/><text x="125" y="245" fill="#eeeeee" font-family="Arial, Tahoma, sans-serif" font-size="22" font-weight="400" text-anchor="start">☐  brand-logo.svg</text><text x="165" y="273" fill="#999999" font-family="Arial, Tahoma, sans-serif" font-size="15" font-weight="400" text-anchor="start">Assets/Brand/brand-logo.svg</text><rect x="690" y="220" width="90" height="38" rx="8" fill="#343434"/><text x="735.0" y="245" fill="#dddddd" font-family="Arial, Tahoma, sans-serif" font-size="15" font-weight="400" text-anchor="middle">Open</text><rect x="790" y="220" width="145" height="38" rx="8" fill="#7c3aed"/><text x="862.5" y="245" fill="white" font-family="Arial, Tahoma, sans-serif" font-size="15" font-weight="400" text-anchor="middle">Move to trash</text><rect x="945" y="220" width="130" height="38" rx="8" fill="#343434"/><text x="1010.0" y="245" fill="#dddddd" font-family="Arial, Tahoma, sans-serif" font-size="15" font-weight="400" text-anchor="middle">Never suggest</text><line x1="95" y1="295" x2="1105" y2="295" stroke="#444444"/><text x="125" y="350" fill="#eeeeee" font-family="Arial, Tahoma, sans-serif" font-size="22" font-weight="400" text-anchor="start">☐  old-export.pdf</text><text x="165" y="378" fill="#999999" font-family="Arial, Tahoma, sans-serif" font-size="15" font-weight="400" text-anchor="start">Attachments/old-export.pdf</text><rect x="690" y="325" width="90" height="38" rx="8" fill="#343434"/><text x="735.0" y="350" fill="#dddddd" font-family="Arial, Tahoma, sans-serif" font-size="15" font-weight="400" text-anchor="middle">Open</text><rect x="790" y="325" width="145" height="38" rx="8" fill="#7c3aed"/><text x="862.5" y="350" fill="white" font-family="Arial, Tahoma, sans-serif" font-size="15" font-weight="400" text-anchor="middle">Move to trash</text><rect x="945" y="325" width="130" height="38" rx="8" fill="#343434"/><text x="1010.0" y="350" fill="#dddddd" font-family="Arial, Tahoma, sans-serif" font-size="15" font-weight="400" text-anchor="middle">Never suggest</text><line x1="95" y1="400" x2="1105" y2="400" stroke="#444444"/><text x="125" y="455" fill="#eeeeee" font-family="Arial, Tahoma, sans-serif" font-size="22" font-weight="400" text-anchor="start">☐  voice-note.m4a</text><text x="165" y="483" fill="#999999" font-family="Arial, Tahoma, sans-serif" font-size="15" font-weight="400" text-anchor="start">Attachments/Audio/voice-note.m4a</text><rect x="690" y="430" width="90" height="38" rx="8" fill="#343434"/><text x="735.0" y="455" fill="#dddddd" font-family="Arial, Tahoma, sans-serif" font-size="15" font-weight="400" text-anchor="middle">Open</text><rect x="790" y="430" width="145" height="38" rx="8" fill="#7c3aed"/><text x="862.5" y="455" fill="white" font-family="Arial, Tahoma, sans-serif" font-size="15" font-weight="400" text-anchor="middle">Move to trash</text><rect x="945" y="430" width="130" height="38" rx="8" fill="#343434"/><text x="1010.0" y="455" fill="#dddddd" font-family="Arial, Tahoma, sans-serif" font-size="15" font-weight="400" text-anchor="middle">Never suggest</text><line x1="95" y1="505" x2="1105" y2="505" stroke="#444444"/></svg>